<svg width="25" height="25" viewBox="0 0 25 25" fill="none" xmlns="http://www.w3.org/2000/svg">
<path d="M11.0254 22.8612L10.9033 22.7489L2.34863 14.8046C0.849609 13.413 0 11.4599 0 9.41398V9.25285C0 5.81535 2.44141 2.86613 5.82031 2.2216C7.74414 1.8505 9.71191 2.29484 11.2793 3.39836C11.7188 3.71086 12.1289 4.07218 12.5 4.48722C12.7051 4.25285 12.9248 4.038 13.1592 3.83781C13.3398 3.68156 13.5254 3.53507 13.7207 3.39836C15.2881 2.29484 17.2559 1.8505 19.1797 2.21672C22.5586 2.86125 25 5.81535 25 9.25285V9.41398C25 11.4599 24.1504 13.413 22.6514 14.8046L14.0967 22.7489L13.9746 22.8612C13.5742 23.2323 13.0469 23.4423 12.5 23.4423C11.9531 23.4423 11.4258 23.2372 11.0254 22.8612ZM11.6748 7.08C11.6553 7.06535 11.6406 7.04582 11.626 7.02629L10.7568 6.04972L10.752 6.04484C9.62402 4.78019 7.91992 4.20402 6.25977 4.5214C3.98438 4.95597 2.34375 6.9384 2.34375 9.25285V9.41398C2.34375 10.8056 2.9248 12.1386 3.94531 13.0859L12.5 21.0302L21.0547 13.0859C22.0752 12.1386 22.6562 10.8056 22.6562 9.41398V9.25285C22.6562 6.94328 21.0156 4.95597 18.7451 4.5214C17.085 4.20402 15.376 4.78508 14.2529 6.04484C14.2529 6.04484 14.2529 6.04484 14.248 6.04972C14.2432 6.05461 14.248 6.04972 14.2432 6.05461L13.374 7.03117C13.3594 7.0507 13.3398 7.06535 13.3252 7.08488C13.1055 7.30461 12.8076 7.42668 12.5 7.42668C12.1924 7.42668 11.8945 7.30461 11.6748 7.08488V7.08Z" fill="black"/>
</svg>
